# xmcd
#
# Track frame offsets: 
#        150
#        12684
#        24340
#        46609
#        64557
#        84010
#        98241
#        121197
#        138333
#        154965
#
# Disc length: 2306 seconds
#
# Revision: 0
# Processed by: cddbd v1.5.2PL0 Copyright (c) Steve Scherf et al.
# Submitted via: ExactAudioCopy v1.3
#
DISCID=6f09000a
DTITLE=Terrance Simien and The Zydeco Experience - Dockside Sessions
DYEAR=2013
DGENRE=Blues
TTITLE0=Time for Me to Dance
TTITLE1=You Ain’t Goin Nowhere
TTITLE2=You Know I Love You
TTITLE3=Franklin’s Tower
TTITLE4=If Not for You
TTITLE5=In the Dog House
TTITLE6=Ava Magnolia
TTITLE7=It Don't Pay to Cry
TTITLE8=You Go Your Way
TTITLE9=Pressure Drop
EXTD=
EXTT0=
EXTT1=
EXTT2=
EXTT3=
EXTT4=
EXTT5=
EXTT6=
EXTT7=
EXTT8=
EXTT9=
PLAYORDER=
